<svg width="168" height="233" viewBox="0 0 168 233" fill="none" xmlns="http://www.w3.org/2000/svg">
<g opacity="0.5">
<g opacity="0.6">
<path d="M2.58552e-05 83.2072C2.70917e-05 105.433 8.82908 126.748 24.5449 142.464C40.2607 158.18 61.576 167.009 83.8015 167.009L83.8015 83.2072" fill="#4890B8"/>
<path d="M2.58882e-05 7.98702e-06C22.2256 6.75048e-06 43.5408 8.76644 59.2566 24.3708C74.9724 39.9752 83.8015 61.1392 83.8015 83.2071L3.05176e-05 83.2072" fill="#84B4CF"/>
</g>
<g opacity="0.6">
<path d="M83.8964 232.386C106.122 232.386 127.437 223.619 143.153 208.015C158.869 192.411 167.698 171.246 167.698 149.179L83.8964 149.179" fill="#FFE296"/>
<path d="M83.8964 149.178C83.8964 126.953 92.7254 105.638 108.441 89.9219C124.157 74.2061 145.472 65.377 167.698 65.377L167.698 149.178" fill="#FFC93D"/>
</g>
</g>
</svg>
