<svg width="245" height="464" viewBox="0 0 245 464" fill="none" xmlns="http://www.w3.org/2000/svg">
<g opacity="0.6">
<path d="M104.121 -4.67183e-06C132.467 -3.43278e-06 159.652 11.0583 179.696 30.7423C199.74 50.4262 211 77.1234 211 104.961L104.121 104.961" fill="#4890B8"/>
<path d="M-2.00002 -4.6387e-06C-2.00002 27.8373 9.18054 54.5345 29.0821 74.2184C48.9836 93.9023 75.9759 104.961 104.121 104.961L104.121 0" fill="#84B4CF"/>
</g>
<g opacity="0.6">
<path d="M211 105.079C211 132.917 199.819 159.614 179.918 179.298C160.016 198.982 133.024 210.04 104.879 210.04L104.879 105.079" fill="#FFE296"/>
<path d="M104.879 105.079C76.5329 105.079 49.3478 116.138 29.3041 135.822C9.26044 155.506 -2 182.203 -2 210.04L104.879 210.04" fill="#FFC93D"/>
</g>
<g opacity="0.6">
<path d="M127.619 337.452C127.619 303.692 113.963 271.314 89.6546 247.442C65.3463 223.57 32.3771 210.159 -2.00002 210.159L-2.00002 337.452" fill="#FFC93D"/>
<path d="M127.619 464C93.242 464 60.2729 450.667 35.9646 426.935C11.6562 403.202 -2.00002 371.014 -2.00002 337.452L127.619 337.452" fill="#FFE296"/>
</g>
<path d="M87 215C109.278 215 130.644 223.112 146.397 237.553C162.15 251.993 171 271.578 171 292L87 215C87 235.422 95.85 255.007 111.603 269.447C127.356 283.888 148.722 292 171 292" fill="#458EB7"/>
<path d="M128 464C128 430.318 140.327 398.015 162.269 374.197C184.21 350.38 213.97 337 245 337L128 464C159.03 464 188.79 450.62 210.731 426.803C232.673 402.985 245 370.682 245 337" fill="#458EB7"/>
</svg>
