<svg width="113" height="79" viewBox="0 0 113 79" fill="none" xmlns="http://www.w3.org/2000/svg">
<g filter="url(#filter0_d)">
<path d="M61 0.999999C73.5924 0.999999 85.6691 5.58546 94.5733 13.7476C103.478 21.9098 108.48 32.9801 108.48 44.5232L61 0.999999C61 12.5431 66.0023 23.6134 74.9065 31.7755C83.8107 39.9377 95.8874 44.5232 108.48 44.5232" fill="#40A8C4"/>
<line x1="61.3377" y1="1.19642" x2="108.252" y2="44.1544" stroke="white"/>
<path d="M56.0831 0.000103684C60.1209 15.0692 58.5059 30.9914 51.5935 44.264C44.6812 57.5367 33.0376 67.0725 19.2243 70.7738L56.0831 0.000103684C42.2698 3.70137 30.6262 13.2372 23.7139 26.5098C16.8015 39.7825 15.1865 55.7047 19.2243 70.7738" fill="#07689F"/>
<line x1="55.3555" y1="1.26903" x2="19.9821" y2="69.4697" stroke="white"/>
</g>
<defs>
<filter id="filter0_d" x="-6.10352e-05" y="0" width="112.59" height="78.7737" filterUnits="userSpaceOnUse" color-interpolation-filters="sRGB">
<feFlood flood-opacity="0" result="BackgroundImageFix"/>
<feColorMatrix in="SourceAlpha" type="matrix" values="0 0 0 0 0 0 0 0 0 0 0 0 0 0 0 0 0 0 127 0"/>
<feOffset dy="4"/>
<feGaussianBlur stdDeviation="2"/>
<feColorMatrix type="matrix" values="0 0 0 0 0 0 0 0 0 0 0 0 0 0 0 0 0 0 0.25 0"/>
<feBlend mode="normal" in2="BackgroundImageFix" result="effect1_dropShadow"/>
<feBlend mode="normal" in="SourceGraphic" in2="effect1_dropShadow" result="shape"/>
</filter>
</defs>
</svg>
