<svg width="415" height="415" viewBox="0 0 415 415" fill="none" xmlns="http://www.w3.org/2000/svg">
<g opacity="0.7">
<path d="M208.965 208.965C263.36 208.965 315.527 186.949 353.99 147.761C392.452 108.572 414.061 55.421 414.061 -9.15527e-05L208.965 -8.25877e-05" fill="#FFD872"/>
<path d="M208.965 414.061C208.965 359.666 186.949 307.499 147.761 269.036C108.572 230.573 55.4211 208.965 2.15526e-05 208.965L208.965 414.061C181.523 414.061 154.351 408.756 128.998 398.449C103.645 388.142 80.6089 373.034 61.2047 353.989C41.8005 334.945 26.4081 312.335 15.9066 287.452C5.40514 262.568 2.27299e-05 235.899 2.15526e-05 208.965" fill="#FFF1CE"/>
<path d="M3.05176e-05 208.965C2.93181e-05 181.523 5.40515 154.35 15.9066 128.998C26.4081 103.645 41.8005 80.6085 61.2047 61.2043C80.6089 41.8001 103.645 26.408 128.998 15.9065C154.351 5.40503 181.523 -9.03532e-05 208.965 -9.15527e-05L208.965 208.965" fill="#FFF2D2"/>
</g>
</svg>
