<svg width="43" height="31" viewBox="0 0 43 31" fill="none" xmlns="http://www.w3.org/2000/svg">
<path d="M36.5737 13.4732H28.9895C28.8553 13.455 28.7194 13.455 28.5852 13.4732H28.258C28.1574 13.5307 28.0609 13.595 27.9693 13.6658C27.8621 13.7365 27.7592 13.8137 27.6613 13.8968C27.597 13.9755 27.5391 14.0592 27.488 14.147C27.3998 14.2683 27.3225 14.3971 27.257 14.532L24.1771 23.0216L16.1502 1.26829C16.0153 0.89665 15.7693 0.575556 15.4455 0.348642C15.1218 0.121729 14.7361 0 14.3407 0C13.9454 0 13.5597 0.121729 13.2359 0.348642C12.9122 0.575556 12.6662 0.89665 12.5313 1.26829L8.08471 13.4732H1.92493C1.41441 13.4732 0.924794 13.6761 0.563799 14.0371C0.202805 14.3981 0 14.8878 0 15.3983C0 15.9089 0.202805 16.3985 0.563799 16.7596C0.924794 17.1206 1.41441 17.3234 1.92493 17.3234H10.2021C10.3115 17.2707 10.4148 17.2062 10.5101 17.1309C10.6173 17.0601 10.7202 16.983 10.8181 16.8999L10.9914 16.6496C11.0831 16.5307 11.1606 16.4015 11.2223 16.2646L14.3407 7.54402L22.3485 29.5283C22.483 29.9004 22.7288 30.222 23.0526 30.4493C23.3763 30.6767 23.7623 30.7987 24.1579 30.7989C24.5535 30.7987 24.9394 30.6767 25.2632 30.4493C25.587 30.222 25.8328 29.9004 25.9673 29.5283L30.3947 17.3234H36.5737C37.0842 17.3234 37.5738 17.1206 37.9348 16.7596C38.2958 16.3985 38.4986 15.9089 38.4986 15.3983C38.4986 14.8878 38.2958 14.3981 37.9348 14.0371C37.5738 13.6761 37.0842 13.4732 36.5737 13.4732Z" fill="#2A445D"/>
<ellipse cx="38.46" cy="15.4311" rx="4.53881" ry="4.28666" fill="#2A445D"/>
</svg>
