<svg width="232" height="382" viewBox="0 0 232 382" fill="none" xmlns="http://www.w3.org/2000/svg">
<g opacity="0.8">
<g opacity="0.6">
<path d="M21.3915 95.0881C21.3915 120.44 31.4626 144.754 49.3893 162.681C67.3159 180.607 91.6297 190.678 116.982 190.678V95.0881" fill="#4890B8"/>
<path d="M21.3915 0.175762C46.7436 0.175762 71.0574 10.1754 88.9841 27.9749C106.911 45.7745 116.982 69.9158 116.982 95.0881H21.3915" fill="#84B4CF"/>
</g>
<g opacity="0.6">
<path d="M116.749 381.181C86.0032 381.181 56.5163 368.967 34.7754 347.226C13.0346 325.486 0.820681 295.999 0.820681 265.252L116.749 265.252" fill="#1872A6"/>
<path d="M232 381.181C232 350.435 219.858 320.948 198.244 299.207C176.63 277.466 147.316 265.252 116.749 265.252L116.749 381.181" fill="#FFE296"/>
</g>
<g opacity="0.6">
<path d="M117.09 265.252C142.442 265.252 166.756 255.253 184.682 237.453C202.609 219.654 212.68 195.512 212.68 170.34L117.09 170.34" fill="#1872A6"/>
<path d="M117.09 170.34C117.09 144.988 127.161 120.674 145.087 102.748C163.014 84.8209 187.328 74.7498 212.68 74.7498L212.68 170.34" fill="#7EABC5"/>
</g>
</g>
</svg>
