<svg width="371" height="560" viewBox="0 0 371 560" fill="none" xmlns="http://www.w3.org/2000/svg">
<path d="M362 548.653C362 554.105 283.12 560 188.648 560C94.1763 560 17 555.091 17 549.609C17 544.126 362 543.201 362 548.653Z" fill="black" fill-opacity="0.09"/>
<path d="M148.145 175.168C149.001 173.811 181.446 190.117 217.9 168.904C254.354 147.692 233.058 371.697 233.058 371.697L230.093 488.095L225.917 544.299H135.096L116.493 367.521C116.493 367.521 135.471 195.232 148.145 175.168Z" fill="#FFC93C"/>
<path d="M312.166 208.26C297.322 195.503 229.049 169.593 229.049 169.593L217.9 189.511C217.9 189.511 221.512 436.525 219.654 487.406V544.362H303L303.418 415.73C327.512 409.612 346.031 399.465 356.22 388.316C367.766 375.664 370.563 368.544 370.563 351.716C370.563 334.888 327.011 221.017 312.166 208.26Z" fill="#EFF9FF"/>
<path d="M140.649 392.575L141.86 390.613V171.827C141.86 171.827 73.5667 197.737 58.743 210.494C43.9192 223.251 0.763395 341.193 0.28319 358.001C-1.34533 424.812 56.6551 508.869 56.6551 508.869C58.5636 507.957 60.3812 506.867 62.0835 505.612C60.9561 521.145 59.0353 544.383 59.0353 544.383H149.564C149.564 544.383 149.857 475.254 149.564 472.102C149.46 470.202 144.574 427.15 140.649 392.575Z" fill="#EFF9FF"/>
<path d="M285.901 332.967L270.639 342.008C270.464 342.108 270.266 342.162 270.065 342.162C269.863 342.162 269.665 342.108 269.491 342.008L253.372 332.946C253.195 332.862 253.042 332.733 252.929 332.572C252.815 332.411 252.745 332.224 252.725 332.028V298.184C252.725 297.879 252.846 297.587 253.062 297.372C253.277 297.156 253.569 297.035 253.874 297.035H285.191C285.496 297.035 285.788 297.156 286.003 297.372C286.219 297.587 286.34 297.879 286.34 298.184V332.028C286.345 332.208 286.309 332.387 286.232 332.55C286.156 332.713 286.043 332.856 285.901 332.967V332.967Z" fill="#D5E1ED"/>
<path d="M285.901 332.967L270.639 342.008C270.464 342.108 270.266 342.162 270.065 342.162C269.863 342.162 269.665 342.108 269.491 342.008L253.372 332.946C253.195 332.862 253.042 332.733 252.929 332.572C252.815 332.411 252.745 332.224 252.725 332.028V305.011C252.725 304.706 252.846 304.414 253.062 304.199C253.277 303.984 253.569 303.863 253.874 303.863H285.191C285.496 303.863 285.788 303.984 286.003 304.199C286.219 304.414 286.34 304.706 286.34 305.011V332.028C286.345 332.208 286.309 332.387 286.232 332.55C286.156 332.713 286.043 332.856 285.901 332.967V332.967Z" fill="#B8DDFF"/>
<g opacity="0.5">
<path opacity="0.5" d="M219.654 489.639V150.594C219.654 150.594 222.514 155.855 233.016 166.503C246.127 179.803 257.381 199.909 257.381 199.909L233.684 195.315L264.459 226.278L241.305 362.385L224.915 364.828L235.354 397.774L219.654 489.639Z" fill="#8FA7D7"/>
</g>
<g opacity="0.5">
<path opacity="0.5" d="M131.442 166.294C118.33 179.594 107.077 199.7 107.077 199.7L130.774 195.107L99.999 226.069L149.648 482.75L144.804 150.385C144.804 150.385 141.923 155.646 131.442 166.294Z" fill="#8FA7D7"/>
</g>
<path d="M219.654 475.442L214.497 147.984C214.497 147.984 219.821 150.26 230.322 160.908C243.434 174.207 252.224 197.257 252.224 197.257L228.527 192.664L259.302 223.627L237.254 363.659L225.959 366.268L234.31 382.971L219.654 475.442Z" fill="#EFF9FF"/>
<path d="M149.627 472.081V147.963C149.627 147.963 144.303 150.239 133.801 160.887C120.69 174.186 111.9 197.236 111.9 197.236L135.597 192.643L104.822 223.606L149.627 472.081Z" fill="#EFF9FF"/>
<path d="M186.478 498.534C174.174 498.565 161.891 497.51 149.773 495.381V493.481C150.128 493.481 186.123 500.663 219.654 493.481V495.381C208.738 497.604 197.617 498.66 186.478 498.534V498.534Z" fill="black"/>
<path d="M181.905 205.191C170.803 205.253 159.809 202.998 149.627 198.572V196.318C149.94 196.485 183.033 212.185 215.227 194.898V197.111C204.978 202.569 193.516 205.349 181.905 205.191V205.191Z" fill="black"/>
<path opacity="0.5" d="M30.4109 358.084C30.4109 358.084 55.0684 362.824 67.8878 375.643C67.8878 375.643 35.9437 359.671 30.4109 358.084Z" fill="#8FA7D7"/>
<path d="M95.7814 467.968L100.959 474.231C100.959 474.231 90.52 499.682 79.016 513.107L69.6415 500.079C80.294 491.112 89.1619 480.218 95.7814 467.968V467.968Z" fill="#FFCCA9"/>
<path opacity="0.5" d="M59.5992 358.084C60.1838 359.065 68.4726 366.958 71.2286 374.641L58.2213 359.859L59.5992 358.084Z" fill="#8FA7D7"/>
<path opacity="0.5" d="M85.8224 272.503C85.8224 271.313 78.2435 370.632 75.0282 383.577L99.978 459.867C99.978 459.867 86.8037 489.64 62.1462 505.612C62.1462 505.612 77.9303 503.252 102.776 468.949C102.776 468.949 90.2486 504.442 72.7942 519.433C72.7942 519.433 100.396 503.064 108.496 453.374L82.4609 383.598C82.4609 383.598 87.0125 294.593 85.8224 272.503Z" fill="#8FA7D7"/>
<path opacity="0.5" d="M303.376 415.73L291.371 419.195L293.208 429.969L303.376 426.044V415.73Z" fill="#8FA7D7"/>
<path opacity="0.5" d="M300.495 341.256L291.371 266.49L294.211 343.636C263.582 355.266 230.594 369.15 230.594 369.15C230.594 369.15 248.132 364.64 269.637 358.898C291.141 353.157 331.166 330.692 331.166 330.692C323.002 333.072 312.103 336.913 300.495 341.256Z" fill="#8FA7D7"/>
<path opacity="0.1" d="M342.837 268.348C342.837 268.348 362.108 320.252 362.316 353.95C362.316 366.477 355.239 376.917 350.082 380.57C299.973 417.066 237.985 418.36 237.985 418.36C237.985 418.36 237.484 426.712 236.294 428.298C236.294 428.298 345.864 421.033 366.805 373.597C369.975 367.641 371.256 360.861 370.48 354.159C368.475 331.756 356.011 300.313 342.837 268.348Z" fill="#8FA7D7"/>
<path opacity="0.1" d="M37.6765 249.286C38.449 247.198 6.35875 328.771 6.73456 358.084C7.31916 419.634 52.7925 497.302 62.1461 505.591L56.7177 508.848C56.7177 508.848 -3.62116 419.216 0.345752 357.98C1.13913 345.891 2.60064 340.546 37.6765 249.286Z" fill="#8FA7D7"/>
<path d="M236.607 427.797C240.156 391.699 229.779 369.463 230.99 368.92C242.703 363.638 271.829 352.217 295.275 343.093L296.277 289.937L176.456 285.093L173.742 462.08L293.125 457.299L293.856 418.674C274.989 422.942 255.866 425.99 236.607 427.797V427.797Z" fill="#40A8C4"/>
<path d="M256.003 288.329L256.065 286.179L223.558 284.32L223.495 287.014L256.003 288.329Z" fill="#A1B5BF"/>
<path d="M227.023 291.252C227.392 291.252 227.691 290.953 227.691 290.584C227.691 290.215 227.392 289.916 227.023 289.916C226.654 289.916 226.355 290.215 226.355 290.584C226.355 290.953 226.654 291.252 227.023 291.252Z" fill="#A1B5BF"/>
<path d="M253.038 292.087C253.269 292.087 253.455 291.9 253.455 291.67C253.455 291.439 253.269 291.252 253.038 291.252C252.807 291.252 252.62 291.439 252.62 291.67C252.62 291.9 252.807 292.087 253.038 292.087Z" fill="#A1B5BF"/>
<path d="M234.456 105.308C231.053 117.606 225.019 127.043 222.388 126.312C222.388 126.312 224.226 118.483 226.689 105.955C229.55 91.3405 229.946 81.1727 235.897 81.7156C238.59 81.9661 237.859 92.99 234.456 105.308Z" fill="#F0BA92"/>
<g opacity="0.6">
<path opacity="0.6" d="M229.884 100.277C226.773 112.657 225.019 127.105 222.388 126.375C222.388 126.375 224.998 115.205 227.462 102.678C230.322 88.0626 230.03 83.1144 235.959 83.6781C236.022 83.5737 233.663 85.1605 229.884 100.277Z" fill="#D88D64"/>
</g>
<path d="M130.105 105.308C133.509 117.606 139.188 127.105 141.797 126.396C141.797 126.396 139.021 116.249 137.371 105.517C135.095 90.9022 134.615 81.1102 128.665 81.653C125.972 81.9662 126.702 92.99 130.105 105.308Z" fill="#F0BA92"/>
<g opacity="0.6">
<path opacity="0.6" d="M132.84 98.8777C135.951 111.259 139.104 127.126 141.797 126.396C141.797 126.396 139.02 113.639 136.557 101.112C133.696 86.4967 134.177 83.1353 128.205 83.6782C128.226 83.699 129.082 83.8243 132.84 98.8777Z" fill="#D88D64"/>
</g>
<path d="M214.956 176.796C214.956 176.796 210.446 188.676 182.072 188.676C153.698 188.676 149.627 177.527 149.627 177.527V141.428H214.517L214.956 176.796Z" fill="#F0BA92"/>
<g opacity="0.6">
<path opacity="0.6" d="M214.538 150.594C208.671 162.828 185.767 172.453 182.051 172.453C178.335 172.453 158.876 165.062 149.606 150.802V132.012H214.496L214.538 150.594Z" fill="#D88D64"/>
</g>
<path d="M222.388 126.312C211.573 161.805 182.051 162.432 182.051 162.432C182.051 162.432 150.859 162.432 141.547 125.456C135.409 101.112 120.668 63.8436 138.332 36.2214C148.374 20.5834 221.344 14.3407 229.946 36.2214C238.548 58.102 228.735 105.475 222.388 126.312Z" fill="#FFCCA9"/>
<path d="M197.919 124.997C199.109 125.999 195.434 138.839 182.072 138.985C170.735 139.111 165.056 127.46 166.079 125.727C167.353 123.64 171.863 125.038 181.613 125.038C191.363 125.038 196.625 123.911 197.919 124.997Z" fill="white"/>
<path d="M181.926 139.653C178.827 139.569 175.804 138.68 173.154 137.073C170.503 135.466 168.317 133.196 166.81 130.488C165.787 128.713 164.91 126.458 165.536 125.393C166.58 123.64 169.002 123.786 173.387 124.057C175.474 124.203 178.293 124.37 181.634 124.37C185.621 124.37 188.795 124.182 191.363 124.036C195.372 123.807 197.397 123.681 198.357 124.496C199.276 125.268 198.566 127.586 198.232 128.546C197.035 131.849 194.837 134.695 191.943 136.687C189.049 138.678 185.605 139.715 182.093 139.653H181.926ZM169.649 125.205C168.063 125.205 167.06 125.393 166.664 126.062C166.75 127.684 167.341 129.239 168.355 130.509C169.802 132.821 171.794 134.744 174.156 136.108C176.518 137.473 179.179 138.239 181.905 138.338H182.072C184.742 138.391 187.381 137.755 189.733 136.489C192.085 135.223 194.07 133.372 195.497 131.114C196.698 129.48 197.381 127.524 197.459 125.498C195.478 125.106 193.443 125.064 191.446 125.373C188.858 125.519 185.663 125.707 181.634 125.707C178.251 125.707 175.516 125.54 173.282 125.393C171.862 125.331 170.652 125.205 169.649 125.205V125.205Z" fill="#D3976E"/>
<path d="M182.114 114.14C180.848 113.331 179.9 112.111 179.428 110.685C178.957 109.259 178.991 107.714 179.525 106.31C180.378 102.852 180.84 99.3079 180.903 95.7459H182.218C182.156 99.4439 181.666 103.122 180.757 106.707C180.329 107.832 180.304 109.07 180.684 110.211C181.065 111.352 181.828 112.327 182.845 112.971L182.114 114.14Z" fill="#D88D64"/>
<path d="M233.329 378.983L221.094 380.842C205.477 382.199 199.693 370.173 185.893 371.947C172.092 373.722 173.741 379.213 173.741 379.213C164.597 379.464 166.998 392.116 166.998 392.116C162.676 398.547 167.165 405.979 167.165 405.979C164.012 410.427 168.209 417.17 168.209 417.17C169.378 424.499 178.272 430.553 187.834 431.576H188.816H189.839H190.924H192.449H192.636L193.931 431.451C205.477 429.885 237.275 417.003 237.275 417.003C237.776 392.241 233.329 378.983 233.329 378.983Z" fill="#FFCCA9"/>
<path d="M173.762 379.192C173.762 379.192 181.675 380.737 185.976 381.03C191.542 381.58 197.075 382.416 202.554 383.535C202.554 383.535 189.672 382.449 185.851 382.22C182.991 382.136 172.552 379.318 173.762 379.192Z" fill="#D88D64"/>
<path d="M176.226 395.624C176.226 395.624 170.401 393.243 168.71 390.926C167.731 389.5 167.108 387.861 166.894 386.145C166.63 388.13 166.672 390.144 167.019 392.116L176.226 395.624Z" fill="#D88D64"/>
<path d="M176.456 409.424C173.743 408.263 171.137 406.865 168.668 405.249C167.131 403.915 165.96 402.212 165.265 400.301C165.516 402.313 166.193 404.248 167.248 405.979L176.456 409.424Z" fill="#D88D64"/>
<path d="M177.562 420.657C174.849 419.495 172.243 418.098 169.775 416.481C168.165 415.022 166.921 413.206 166.142 411.178C166.457 413.32 167.211 415.374 168.355 417.212L177.562 420.657Z" fill="#D88D64"/>
<path d="M174.911 375.873C174.911 375.873 173.512 379.088 176.038 379.526L176.456 380.111L173.762 379.109C173.714 378.519 173.791 377.925 173.989 377.367C174.187 376.809 174.501 376.3 174.911 375.873Z" fill="#D88D64"/>
<g opacity="0.1">
<path opacity="0.1" d="M131.108 228.867L131.692 193.374L128.728 193.958L128.143 229.034C112.087 231.79 108.872 260.352 108.329 296.66V298.747C108.329 306.18 112.275 308.018 117.328 308.811C119.168 309.08 121.023 309.233 122.882 309.27C123.167 309.898 123.658 310.41 124.274 310.721C124.89 311.031 125.594 311.122 126.268 310.978C126.943 310.835 127.548 310.465 127.984 309.93C128.42 309.396 128.66 308.728 128.665 308.038V305.575C128.665 304.772 128.346 304.002 127.778 303.434C127.211 302.866 126.441 302.547 125.638 302.547C124.914 302.552 124.217 302.819 123.675 303.299C123.134 303.779 122.785 304.439 122.694 305.157C118.664 304.948 113.716 304.092 112.108 301.128C110.501 298.163 111.461 292.066 111.586 287.912C112.651 256.114 116.096 231.957 130.857 231.957C145.618 231.957 152.508 256.03 153.489 287.745C153.615 291.732 154.325 297.578 152.821 300.543C151.318 303.508 147.852 304.426 144.24 304.907C144.019 304.194 143.543 303.588 142.903 303.205C142.263 302.822 141.503 302.688 140.771 302.831C140.039 302.973 139.384 303.381 138.934 303.976C138.484 304.571 138.27 305.311 138.332 306.055L138.624 308.519C138.709 309.216 139.034 309.863 139.544 310.347C140.053 310.831 140.715 311.123 141.417 311.173C142.118 311.222 142.814 311.026 143.387 310.618C143.959 310.21 144.372 309.615 144.554 308.936C150.337 308.143 156.872 305.575 156.663 297.996V295.01V294.864C155.953 257.721 148.708 229.222 131.108 228.867Z" fill="#0E3368"/>
<path opacity="0.1" d="M274.898 257.492C271.912 187.277 239.404 171.326 237.943 170.658C237.943 170.658 239.822 172.161 248.006 183.456C256.504 195.232 269.72 216.444 271.516 257.554C267.868 257.988 264.524 259.799 262.167 262.616C259.811 265.434 258.619 269.045 258.836 272.712C259.054 276.379 260.663 279.824 263.336 282.343C266.01 284.863 269.544 286.266 273.217 286.266C276.89 286.266 280.425 284.863 283.098 282.343C285.771 279.824 287.381 276.379 287.598 272.712C287.815 269.045 286.624 265.434 284.267 262.616C281.91 259.799 278.566 257.988 274.919 257.554L274.898 257.492Z" fill="#0E3368"/>
<path opacity="0.1" d="M293.688 418.569L293.104 457.487L184.87 461.641L184.703 475.317L300.516 470.41V416.899L293.688 418.569Z" fill="#0E3368"/>
</g>
<path d="M152.508 291.231C151.777 253.817 146.245 225.422 128.31 225.422C110.375 225.422 104.717 254.652 104.154 293.027V295.115C104.154 302.547 108.1 304.385 113.152 305.178C114.992 305.447 116.847 305.6 118.706 305.637C118.991 306.265 119.483 306.777 120.099 307.088C120.714 307.398 121.418 307.489 122.093 307.346C122.767 307.202 123.373 306.832 123.808 306.297C124.244 305.763 124.484 305.095 124.489 304.406V301.942C124.489 301.139 124.17 300.369 123.603 299.801C123.035 299.233 122.265 298.915 121.462 298.915C120.738 298.919 120.041 299.186 119.499 299.666C118.958 300.146 118.609 300.806 118.518 301.524C114.488 301.316 109.54 300.46 107.933 297.495C106.325 294.53 107.285 288.434 107.411 284.279C108.475 252.481 113.674 228.575 128.393 228.575C143.113 228.575 148.291 252.418 149.272 284.153C149.397 288.141 150.107 293.987 148.604 296.952C147.101 299.917 143.635 300.835 140.023 301.316C139.802 300.603 139.326 299.997 138.685 299.614C138.045 299.231 137.286 299.097 136.553 299.24C135.821 299.382 135.167 299.79 134.717 300.385C134.267 300.98 134.052 301.72 134.114 302.464L134.407 304.928C134.491 305.625 134.817 306.272 135.326 306.756C135.836 307.24 136.498 307.532 137.199 307.582C137.9 307.631 138.597 307.435 139.169 307.027C139.742 306.619 140.154 306.024 140.336 305.345C146.119 304.552 152.654 301.984 152.446 294.405V291.419L152.508 291.231Z" fill="#383F47"/>
<path d="M128.707 226.967H125.742V194.585L128.707 194V226.967Z" fill="#383F47"/>
<path d="M263.999 249.286C262.475 207.216 249.05 185.67 240.427 173.748C232.264 162.432 230.364 160.949 230.364 160.949C231.763 161.597 264.793 177.652 267.402 249.161L263.999 249.286Z" fill="#383F47"/>
<path d="M265.899 250.08C263.603 206.339 253.163 187.194 244.561 175.272C236.398 163.956 230.322 160.887 230.322 160.887C231.721 161.534 264.793 179.009 267.403 250.456L265.899 250.08Z" fill="#1A2026"/>
<path d="M265.941 276.637C273.932 276.637 280.41 270.159 280.41 262.168C280.41 254.177 273.932 247.7 265.941 247.7C257.95 247.7 251.472 254.177 251.472 262.168C251.472 270.159 257.95 276.637 265.941 276.637Z" fill="#BCBCBC"/>
<path d="M265.941 277.034C262.997 277.034 260.119 276.161 257.671 274.525C255.223 272.889 253.315 270.564 252.188 267.844C251.061 265.124 250.767 262.131 251.341 259.243C251.915 256.356 253.333 253.703 255.415 251.621C257.497 249.539 260.149 248.122 263.037 247.547C265.925 246.973 268.918 247.268 271.638 248.394C274.358 249.521 276.683 251.429 278.319 253.877C279.955 256.325 280.828 259.203 280.828 262.147C280.822 266.094 279.252 269.877 276.461 272.668C273.671 275.458 269.888 277.028 265.941 277.034V277.034ZM265.941 248.096C263.162 248.096 260.445 248.92 258.135 250.464C255.824 252.008 254.023 254.203 252.96 256.77C251.896 259.338 251.618 262.163 252.16 264.889C252.702 267.614 254.04 270.118 256.006 272.083C257.971 274.048 260.474 275.387 263.2 275.929C265.926 276.471 268.751 276.193 271.318 275.129C273.886 274.066 276.08 272.265 277.624 269.954C279.168 267.643 279.992 264.927 279.992 262.147C279.987 258.424 278.504 254.856 275.87 252.225C273.235 249.595 269.664 248.117 265.941 248.117V248.096Z" fill="#444444"/>
<g opacity="0.3">
<path opacity="0.3" d="M273.123 275.238L269.428 267.555L272.017 260.477L279.992 257.053C279.992 257.053 284.648 267.284 273.082 275.238H273.123Z" fill="white"/>
</g>
<path d="M265.941 270.04C269.527 270.04 272.434 266.983 272.434 263.212C272.434 259.442 269.527 256.385 265.941 256.385C262.355 256.385 259.448 259.442 259.448 263.212C259.448 266.983 262.355 270.04 265.941 270.04Z" fill="#635B53"/>
<g opacity="0.4">
<path opacity="0.4" d="M263.665 247.178L264.459 255.947L259.594 261.688L250.929 262.127C250.929 262.127 250.073 250.623 263.665 247.157V247.178Z" fill="white"/>
</g>
<path d="M265.941 267.952C269.135 267.952 271.725 265.362 271.725 262.168C271.725 258.974 269.135 256.385 265.941 256.385C262.747 256.385 260.158 258.974 260.158 262.168C260.158 265.362 262.747 267.952 265.941 267.952Z" fill="#D3D3D3"/>
<path d="M265.941 268.348C264.702 268.348 263.491 267.981 262.461 267.293C261.431 266.605 260.628 265.626 260.154 264.482C259.68 263.337 259.556 262.078 259.798 260.863C260.04 259.648 260.636 258.532 261.512 257.656C262.388 256.78 263.504 256.183 264.719 255.942C265.934 255.7 267.194 255.824 268.338 256.298C269.483 256.772 270.461 257.575 271.149 258.605C271.837 259.635 272.205 260.846 272.205 262.085C272.205 263.746 271.545 265.339 270.37 266.514C269.195 267.689 267.602 268.348 265.941 268.348ZM265.941 256.782C264.88 256.782 263.842 257.096 262.96 257.686C262.078 258.276 261.39 259.114 260.984 260.094C260.578 261.075 260.471 262.153 260.678 263.194C260.885 264.235 261.396 265.191 262.147 265.942C262.897 266.692 263.853 267.203 264.894 267.41C265.935 267.617 267.014 267.511 267.994 267.105C268.975 266.699 269.813 266.011 270.403 265.129C270.992 264.246 271.307 263.209 271.307 262.147C271.285 260.739 270.71 259.395 269.706 258.407C268.702 257.419 267.35 256.865 265.941 256.865V256.782Z" fill="#A8A6A0"/>
<path d="M265.941 265.112C267.198 265.112 268.217 264.093 268.217 262.836C268.217 261.58 267.198 260.561 265.941 260.561C264.684 260.561 263.666 261.58 263.666 262.836C263.666 264.093 264.684 265.112 265.941 265.112Z" fill="#BABABA"/>
<path d="M265.941 264.444C267.198 264.444 268.217 263.425 268.217 262.168C268.217 260.911 267.198 259.893 265.941 259.893C264.684 259.893 263.666 260.911 263.666 262.168C263.666 263.425 264.684 264.444 265.941 264.444Z" fill="white"/>
<path d="M121.128 300.125H120.501C119.982 300.125 119.562 300.546 119.562 301.065V305.032C119.562 305.551 119.982 305.971 120.501 305.971H121.128C121.647 305.971 122.067 305.551 122.067 305.032V301.065C122.067 300.546 121.647 300.125 121.128 300.125Z" fill="#AAA9A2"/>
<path d="M137.569 300.081L136.946 300.14C136.429 300.189 136.05 300.647 136.099 301.164L136.473 305.113C136.522 305.63 136.98 306.009 137.497 305.96L138.12 305.901C138.637 305.852 139.016 305.394 138.967 304.877L138.593 300.928C138.544 300.411 138.086 300.032 137.569 300.081Z" fill="#AAA9A2"/>
<g opacity="0.4">
<path opacity="0.4" d="M264.459 257.199C263.523 257.474 262.687 258.016 262.053 258.757C261.419 259.498 261.015 260.408 260.888 261.375L264.145 261.605L265.001 260.749L264.459 257.199Z" fill="white"/>
</g>
<g opacity="0.4">
<path opacity="0.4" d="M269.031 266.407C269.814 265.824 270.41 265.026 270.747 264.111C271.085 263.195 271.148 262.201 270.931 261.25L267.799 262.147L267.298 263.254L269.031 266.407Z" fill="white"/>
</g>
<path d="M135.012 101.613C135.012 101.613 128.748 76.8927 127.663 64.4073C126.577 51.922 125.241 35.1775 139.313 29.4359C153.385 23.6943 149.063 41.1487 149.063 41.1487C149.063 41.1487 137.935 48.6232 135.701 67.3721C134.49 77.5608 135.012 101.613 135.012 101.613Z" fill="#2A445D"/>
<path d="M228.548 101.237C228.548 101.237 235.479 76.8927 236.586 64.4073C237.692 51.922 239.008 35.1775 224.936 29.4359C210.864 23.6943 215.185 41.1487 215.185 41.1487C215.185 41.1487 226.314 48.6232 228.548 67.3721C229.759 77.5608 228.548 101.237 228.548 101.237Z" fill="#2A445D"/>
<path d="M217.044 47.1617C217.044 47.1617 199.902 49.8967 188.419 44.4892C185.058 42.9025 168.731 49.855 161.277 48.4561C156.834 47.6402 152.638 45.8105 149.017 43.1091C145.396 40.4077 142.447 36.9076 140.399 32.8808C139.563 29.3523 136.223 24.3415 146.516 16.5538C160.88 5.7805 178.606 8.39032 181.571 5.23767C182.952 3.52556 184.76 2.20738 186.813 1.41572C188.865 0.624059 191.09 0.38683 193.263 0.727904C208.65 2.27291 209.402 11.2924 218.067 12.6495C229.341 14.4033 233.141 18.9131 233.872 28.4128C235.124 46.4309 217.044 47.1617 217.044 47.1617Z" fill="#2A445D"/>
<path d="M184.41 2.83658C184.41 2.83658 179.65 6.32328 167.478 20.3954C155.306 34.4675 149.063 33.6324 147.706 33.862C147.706 33.862 158.145 35.6576 169.211 21.1261C180.277 6.59469 184.41 2.83658 184.41 2.83658Z" fill="#1F384C"/>
<path d="M203.431 46.7023C203.431 46.7023 223.641 49.0825 232.452 38.5388C232.452 38.5388 230.594 49.5835 203.89 46.8902L203.431 46.7023Z" fill="#1F384C"/>
<path d="M170.171 46.9947C146.349 50.3143 139.501 30.6677 139.626 31.0226C141.076 35.5813 143.705 39.6757 147.247 42.8912C150.789 46.1067 155.118 48.329 159.795 49.333C161.841 49.8994 163.94 50.2562 166.058 50.3978C167.186 50.3978 167.875 50.3978 167.875 50.3978C190.653 50.6066 209.089 26.5128 209.089 26.5128C193.618 39.8751 179.901 45.0738 170.171 46.9947Z" fill="#1F384C"/>
<path d="M210.822 76.7883C207.997 74.7568 204.493 73.9033 201.05 74.4082C200.695 74.4792 200.327 74.4564 199.983 74.342C199.639 74.2277 199.331 74.0258 199.088 73.7561C198.846 73.4864 198.678 73.1583 198.601 72.804C198.524 72.4498 198.541 72.0816 198.649 71.7357V71.7357C198.722 71.3682 198.892 71.0269 199.142 70.7477C199.392 70.4686 199.712 70.2617 200.069 70.1489C202.403 69.301 204.934 69.1516 207.351 69.7189C209.769 70.2862 211.969 71.5457 213.682 73.3433C213.929 73.6032 214.104 73.9221 214.192 74.2695C214.28 74.6169 214.277 74.981 214.183 75.3268V75.473C214.127 75.834 213.977 76.1741 213.749 76.4591C213.52 76.7442 213.221 76.9643 212.881 77.0974C212.54 77.2306 212.171 77.2721 211.81 77.2179C211.449 77.1636 211.108 77.0155 210.822 76.7883Z" fill="#2A445D"/>
<path d="M154.178 76.5168C157.003 74.4854 160.507 73.6318 163.95 74.1367C164.305 74.2077 164.673 74.1849 165.017 74.0706C165.361 73.9562 165.669 73.7543 165.912 73.4846C166.154 73.215 166.322 72.8869 166.399 72.5326C166.476 72.1783 166.459 71.8101 166.351 71.4642V71.4642C166.278 71.0967 166.108 70.7555 165.858 70.4763C165.608 70.1971 165.288 69.9903 164.931 69.8775C162.597 69.0296 160.066 68.8801 157.649 69.4474C155.231 70.0148 153.031 71.2742 151.318 73.0719C151.071 73.3317 150.896 73.6507 150.808 73.998C150.72 74.3454 150.723 74.7095 150.817 75.0553V75.2015C150.873 75.5625 151.023 75.9026 151.251 76.1877C151.48 76.4727 151.779 76.6928 152.119 76.826C152.46 76.9591 152.829 77.0006 153.19 76.9464C153.552 76.8922 153.892 76.744 154.178 76.5168Z" fill="#2A445D"/>
<path d="M210.676 88.1462C209.974 85.7988 208.489 83.763 206.468 82.3781C204.447 80.9932 202.012 80.3431 199.57 80.536C197.128 80.729 194.825 81.7534 193.047 83.4384C191.268 85.1234 190.121 87.3672 189.797 89.7956V89.7956C188.893 88.7463 187.782 87.8943 186.534 87.2924C185.286 86.6905 183.928 86.3516 182.544 86.2967C181.159 86.2419 179.778 86.4723 178.487 86.9737C177.195 87.475 176.021 88.2365 175.036 89.211C174.604 86.8589 173.398 84.7186 171.611 83.1298C169.824 81.541 167.557 80.5948 165.17 80.4413C162.784 80.2878 160.414 80.9358 158.438 82.2825C156.462 83.6292 154.992 85.5974 154.262 87.8747C136.369 81.6112 131.964 80.6925 130.774 80.9222C130.419 80.9222 130.126 81.5277 130.064 81.82L130.982 82.1958C131.038 82.1138 131.101 82.037 131.17 81.9661C132.715 81.7782 143.844 85.4111 153.928 88.9813C153.379 91.4924 153.75 94.1172 154.972 96.3781C156.195 98.6391 158.189 100.386 160.591 101.301C162.993 102.217 165.643 102.239 168.06 101.365C170.478 100.492 172.501 98.779 173.762 96.5393C174.083 96.4843 174.393 96.3786 174.681 96.2261C174.995 96.0699 175.278 95.8577 175.516 95.5998C175.97 95.0916 176.261 94.4588 176.351 93.7834C176.59 92.5433 176.367 91.2587 175.725 90.1714C176.6 89.2731 177.653 88.568 178.816 88.1015C179.98 87.6349 181.228 87.4172 182.481 87.4625C183.734 87.5077 184.964 87.8149 186.091 88.3641C187.218 88.9134 188.217 89.6926 189.025 90.6516C188.492 91.7012 188.316 92.8961 188.524 94.0548C188.614 94.7302 188.905 95.363 189.359 95.8712C189.597 96.1291 189.88 96.3414 190.194 96.4976C190.482 96.65 190.792 96.7557 191.113 96.8107C192.374 99.0504 194.397 100.763 196.814 101.637C199.232 102.511 201.882 102.488 204.284 101.573C206.686 100.658 208.68 98.9105 209.903 96.6496C211.125 94.3886 211.496 91.7638 210.947 89.2527C221.178 85.6199 232.285 81.9453 233.558 82.2376L234.707 81.7573C234.414 80.9848 233.934 79.8992 210.676 88.1462ZM164.534 100.819C162.631 100.819 160.77 100.255 159.187 99.1973C157.604 98.1397 156.37 96.6365 155.642 94.8777C154.913 93.119 154.723 91.1837 155.094 89.3167C155.466 87.4496 156.382 85.7346 157.728 84.3885C159.074 83.0424 160.789 82.1258 162.656 81.7544C164.523 81.383 166.459 81.5736 168.217 82.3021C169.976 83.0306 171.479 84.2642 172.537 85.8471C173.595 87.4299 174.159 89.2908 174.159 91.1944C174.154 93.7454 173.138 96.1904 171.334 97.9942C169.53 99.7981 167.085 100.814 164.534 100.819V100.819ZM175.266 94.3053C175.153 94.541 174.997 94.7535 174.806 94.9317C174.721 94.9952 174.63 95.0511 174.535 95.0987C174.983 93.9527 175.231 92.7378 175.266 91.5076C175.373 91.7036 175.451 91.9148 175.495 92.134C175.596 92.8657 175.517 93.6109 175.266 94.3053ZM190.194 95.2031C190.003 95.0249 189.847 94.8124 189.735 94.5767C189.496 93.9082 189.418 93.1932 189.505 92.4889C189.55 92.2698 189.627 92.0587 189.735 91.8625C189.77 93.0927 190.017 94.3076 190.465 95.4536C190.366 95.3796 190.276 95.2956 190.194 95.2031V95.2031ZM200.466 101.07C198.562 101.07 196.702 100.505 195.119 99.4478C193.536 98.3902 192.302 96.887 191.574 95.1283C190.845 93.3695 190.655 91.4343 191.026 89.5672C191.397 87.7002 192.314 85.9852 193.66 84.6391C195.006 83.293 196.721 82.3763 198.588 82.0049C200.455 81.6335 202.391 81.8242 204.149 82.5526C205.908 83.2811 207.411 84.5148 208.469 86.0976C209.527 87.6804 210.091 89.5413 210.091 91.445C210.086 93.9852 209.078 96.4207 207.288 98.2228C205.498 100.025 203.069 101.048 200.529 101.07H200.466Z" fill="#302420"/>
<path d="M200.466 94.6811C201.873 94.6811 203.013 93.2322 203.013 91.4449C203.013 89.6576 201.873 88.2087 200.466 88.2087C199.059 88.2087 197.919 89.6576 197.919 91.4449C197.919 93.2322 199.059 94.6811 200.466 94.6811Z" fill="#210601"/>
<path d="M164.534 94.4305C165.941 94.4305 167.081 92.9817 167.081 91.1944C167.081 89.4071 165.941 87.9582 164.534 87.9582C163.128 87.9582 161.987 89.4071 161.987 91.1944C161.987 92.9817 163.128 94.4305 164.534 94.4305Z" fill="#210601"/>
<path d="M107.035 292.609C107.035 292.609 104.216 235.486 123.508 228.074C125.387 227.379 127.395 227.102 129.392 227.261C131.39 227.419 133.328 228.01 135.075 228.992C145.284 234.379 147.831 253.921 148.604 262.816C149.627 274.32 151.193 291.043 149.147 295.72C149.147 295.72 149.857 269.163 145.409 249.787C140.962 230.412 132.569 228.283 127.203 228.575C121.838 228.867 115.595 234.838 112.129 246.635C108.663 258.431 107.035 292.609 107.035 292.609Z" fill="#1A2026"/>
<path d="M104.258 296.827C104.736 298.324 105.577 299.679 106.707 300.772C107.836 301.865 109.218 302.661 110.73 303.09C112.061 303.497 113.472 303.565 114.836 303.288C116.2 303.011 117.472 302.398 118.539 301.503C118.334 302.895 118.397 304.312 118.727 305.679C118.727 305.679 104.717 307.099 104.258 296.827Z" fill="#1A2026"/>
<path d="M152.508 292.922C152.588 294.428 152.309 295.93 151.694 297.307C151.199 298.432 150.47 299.438 149.556 300.259C148.641 301.08 147.562 301.696 146.391 302.067C141.735 304.531 140.127 301.232 140.127 301.232C140.428 302.553 140.533 303.91 140.44 305.262C140.44 305.262 153.594 304.886 152.508 292.922Z" fill="#1A2026"/>
<path d="M125.742 194.585L128.707 194L128.519 195.524L125.742 196.046V194.585Z" fill="#1A2026"/>
</svg>
