<svg width="370" height="569" viewBox="0 0 370 569" fill="none" xmlns="http://www.w3.org/2000/svg">
<g filter="url(#filter0_d)">
<path d="M317.727 451C329.011 451 339.833 455.109 347.811 462.423C355.79 469.737 360.273 479.657 360.273 490L317.727 451C317.727 461.343 322.21 471.263 330.189 478.577C338.167 485.891 348.989 490 360.273 490" fill="#07689F"/>
<line x1="359.426" y1="489.86" x2="317.894" y2="451.367" stroke="#EFF9FF"/>
<path d="M9.48032 553C9.48032 536.291 15.5952 520.267 26.4797 508.452C37.3641 496.637 52.1267 490 67.5197 490L9.48032 553C24.8733 553 39.6359 546.363 50.5204 534.548C61.4048 522.733 67.5197 506.709 67.5197 490" fill="#40A8C4"/>
<line x1="67.3902" y1="490.836" x2="10.343" y2="552.348" stroke="#EFF9FF"/>
<path d="M295 2.33331C306.67 2.33331 317.861 6.5827 326.113 14.1467C334.364 21.7106 339 31.9696 339 42.6666L295 2.33331C295 13.0304 299.636 23.2893 307.887 30.8533C316.139 38.4173 327.33 42.6666 339 42.6666" fill="#FFC93C"/>
<line x1="295.338" y1="2.48836" x2="338.814" y2="42.2979" stroke="#EFF9FF"/>
</g>
<defs>
<filter id="filter0_d" x="0.480316" y="0.119598" width="368.792" height="568.88" filterUnits="userSpaceOnUse" color-interpolation-filters="sRGB">
<feFlood flood-opacity="0" result="BackgroundImageFix"/>
<feColorMatrix in="SourceAlpha" type="matrix" values="0 0 0 0 0 0 0 0 0 0 0 0 0 0 0 0 0 0 127 0"/>
<feOffset dy="7"/>
<feGaussianBlur stdDeviation="4.5"/>
<feColorMatrix type="matrix" values="0 0 0 0 0 0 0 0 0 0 0 0 0 0 0 0 0 0 0.17 0"/>
<feBlend mode="normal" in2="BackgroundImageFix" result="effect1_dropShadow"/>
<feBlend mode="normal" in="SourceGraphic" in2="effect1_dropShadow" result="shape"/>
</filter>
</defs>
</svg>
